<!-- Generated by IcoMoon.io -->
<svg version="1.1" xmlns="http://www.w3.org/2000/svg" width="34" height="32" viewBox="0 0 34 32">
<title>house</title>
<path fill="#95e1d3" d="M33.574 16.787c0 0.002 0 0.004 0 0.007 0 0.865-0.701 1.566-1.566 1.566-0.418 0-0.797-0.164-1.078-0.43l0.001 0.001v0.011l-14.14-14.143-14.108 14.112c-0.286 0.277-0.675 0.449-1.104 0.451h-0c-0.869 0-1.574-0.705-1.574-1.574v0c0-0.002-0-0.005-0-0.007 0-0.443 0.185-0.842 0.483-1.125l0.001-0.001 15.169-15.171c0.287-0.297 0.689-0.481 1.134-0.483h0.097c0.024 0 0.047 0.011 0.071 0.011 0.39 0.042 0.731 0.224 0.978 0.492l0.001 0.001 6.19 6.19v-1.448c0-0.869 0.705-1.574 1.574-1.574s1.574 0.705 1.574 1.574v0 4.595l5.876 5.875c0.262 0.278 0.423 0.654 0.423 1.067 0 0.001 0 0.002 0 0.003v-0zM30.427 19.41v11.017c0 0.869-0.705 1.574-1.574 1.574v0h-3.148v-12.59h-6.295v12.59h-14.689c-0.869 0-1.574-0.705-1.574-1.574v0-11.017l13.64-13.64zM14.164 19.41h-6.295v6.295h6.295v-6.295z"></path>
</svg>
